#N canvas 1463 -335 450 300 10;
#X obj 56 82 vsl 15 128 0 0.05 0 0 thres empty empty 0 -9 0 10 -262144
-1 -1 0 1;
#X obj 124 106 tgl 40 0 onoff empty empty 17 7 0 10 -262144 -1 -1 0
1;
#N canvas 1640 1031 661 594 game_main 1;
#X obj 336 222 print;
#X obj 191 102 vsl 15 128 0 0.05 0 0 s1 empty empty 0 -9 0 10 -262144
-1 -1 0 1;
#X obj 20 115 netsend;
#X msg 38 38 disconnect;
#X floatatom 20 193 0 0 0 0 - - -;
#X obj 12 161 print backward;
#X msg 21 11 connect localhost 8003;
#X obj 248 38 route a e i o;
#X obj 222 104 vsl 15 128 0 0.05 0 0 s2 empty empty 0 -9 0 10 -262144
-1 -1 11268 1;
#X obj 253 102 vsl 15 128 0 0.05 0 0 s3 empty empty 0 -9 0 10 -262144
-1 -1 12700 1;
#X obj 281 104 vsl 15 128 0 0.05 0 0 s4 empty empty 0 -9 0 10 -262144
-1 -1 0 1;
#X floatatom 336 111 5 0 0 0 - - -, f 5;
#X obj 107 259 moses \$1;
#X obj 147 237 r threshold;
#X obj 129 108 loadbang;
#X obj 128 154 s threshold;
#X obj 150 307 moses \$1;
#X obj 190 285 r threshold;
#X obj 202 342 moses \$1;
#X obj 267 320 r threshold;
#X obj 294 284 moses \$1;
#X obj 334 262 r threshold;
#X msg 155 363 1;
#X msg 99 336 1;
#X msg 251 375 1;
#X msg 373 344 1;
#X obj 166 421 expr $f1 + $f2 + $f3 + $f4 + $f5;
#X msg 93 395 0;
#X obj 51 367 metro 200;
#X obj 129 460 bng 15 250 50 0 empty empty empty 17 7 0 10 -262144
-1 -1;
#X floatatom 174 462 5 0 0 0 - - -, f 5;
#X obj 174 481 moses 1.5;
#X obj 231 511 bng 15 250 50 0 empty empty empty 17 7 0 10 -262144
-1 -1;
#X msg 104 295 0;
#X msg 137 327 0;
#X msg 207 369 0;
#X msg 314 363 0;
#X obj 84 321 bng 15 250 50 0 empty empty empty 17 7 0 10 -262144 -1
-1;
#X obj 159 279 bng 15 250 50 0 empty empty empty 17 7 0 10 -262144
-1 -1;
#X msg 129 130 0.02;
#X msg 56 64 send i 0.021;
#X msg 49 89 send u 0.03;
#X obj 18 327 tgl 15 0 empty empty empty 17 7 0 10 -262144 -1 -1 0
1;
#X obj 459 372 bng 15 250 50 0 empty empty empty 17 7 0 10 -262144
-1 -1;
#X obj 459 449 readsf~ 2;
#X obj 460 481 dac~;
#X text 503 368 click here to open wav file;
#X text 576 418 click here once file is open;
#X msg 539 389 start;
#X obj 325 467 tgl 15 0 empty empty empty 17 7 0 10 -262144 -1 -1 1
1;
#X obj 280 495 moses 0.5;
#X obj 263 461 bng 15 250 50 0 empty empty empty 17 7 0 10 -262144
-1 -1;
#X msg 459 411 open buzz.wav;
#X obj 536 80 loadbang;
#X obj 552 454 bng 15 250 50 0 empty empty empty 17 7 0 10 -262144
-1 -1;
#X obj 366 503 bng 15 250 50 0 empty empty empty 17 7 0 10 -262144
-1 -1;
#X obj 310 529 bng 15 250 50 0 empty empty empty 17 7 0 10 -262144
-1 -1;
#X msg 292 464 0.4;
#X msg 357 452 0;
#X obj 337 145 netreceive 8002;
#X msg 20 295 0;
#X msg 555 154 \; pd dsp 1;
#X obj 148 71 r thres;
#X obj 239 544 s error;
#X obj 14 408 r onoff;
#X connect 1 0 12 0;
#X connect 2 0 4 0;
#X connect 2 1 5 0;
#X connect 3 0 2 0;
#X connect 6 0 2 0;
#X connect 7 0 1 0;
#X connect 7 1 8 0;
#X connect 7 2 9 0;
#X connect 7 3 10 0;
#X connect 8 0 16 0;
#X connect 9 0 18 0;
#X connect 10 0 20 0;
#X connect 12 0 33 0;
#X connect 12 1 23 0;
#X connect 12 1 38 0;
#X connect 13 0 12 1;
#X connect 14 0 39 0;
#X connect 16 0 34 0;
#X connect 16 1 22 0;
#X connect 17 0 16 1;
#X connect 18 0 35 0;
#X connect 18 1 24 0;
#X connect 19 0 18 1;
#X connect 20 0 36 0;
#X connect 20 1 25 0;
#X connect 21 0 20 1;
#X connect 22 0 26 2;
#X connect 23 0 26 1;
#X connect 24 0 26 3;
#X connect 25 0 26 4;
#X connect 26 0 29 0;
#X connect 26 0 30 0;
#X connect 27 0 26 0;
#X connect 28 0 27 0;
#X connect 30 0 31 0;
#X connect 31 1 32 0;
#X connect 32 0 51 0;
#X connect 32 0 63 0;
#X connect 33 0 26 1;
#X connect 33 0 37 0;
#X connect 34 0 26 2;
#X connect 35 0 26 3;
#X connect 36 0 26 4;
#X connect 39 0 15 0;
#X connect 40 0 2 0;
#X connect 41 0 2 0;
#X connect 42 0 28 0;
#X connect 43 0 52 0;
#X connect 43 0 60 0;
#X connect 44 0 45 0;
#X connect 44 0 45 1;
#X connect 44 2 54 0;
#X connect 48 0 44 0;
#X connect 49 0 50 1;
#X connect 50 0 56 0;
#X connect 50 1 55 0;
#X connect 51 0 57 0;
#X connect 52 0 44 0;
#X connect 53 0 58 0;
#X connect 53 0 43 0;
#X connect 53 0 61 0;
#X connect 54 0 43 0;
#X connect 54 0 58 0;
#X connect 55 0 49 0;
#X connect 55 0 48 0;
#X connect 57 0 50 0;
#X connect 58 0 49 0;
#X connect 59 0 0 0;
#X connect 59 0 7 0;
#X connect 62 0 15 0;
#X connect 64 0 42 0;
#X restore 118 60 pd game_main;
#X obj 205 95 vsl 15 128 0 0.05 0 0 empty s1 empty 0 -9 0 10 -262144
-1 -1 0 1;
#X obj 236 97 vsl 15 128 0 0.05 0 0 empty s2 empty 0 -9 0 10 -262144
-1 -1 11268 1;
#X obj 267 95 vsl 15 128 0 0.05 0 0 empty s3 empty 0 -9 0 10 -262144
-1 -1 12700 1;
#X obj 295 97 vsl 15 128 0 0.05 0 0 empty s4 empty 0 -9 0 10 -262144
-1 -1 0 1;
#X obj 135 163 bng 15 250 50 0 empty error empty 17 7 0 10 -262144
-1 -1;
